# Blender v2.78 (sub 0) OBJ File: ''
# www.blender.org
mtllib crate.mtl
g Crate
v -1.000000 0.000000 1.000000
v -1.000000 2.000000 1.000000
v -1.000000 0.000000 -1.000000
v -1.000000 2.000000 -1.000000
v 1.000000 0.000000 1.000000
v 1.000000 2.000000 1.000000
v 1.000000 0.000000 -1.000000
v 1.000000 2.000000 -1.000000
vt 1.0000 0.0000
vt 0.0000 1.0000
vt 0.0000 0.0000
vt 1.0000 0.0000
vt 0.0000 1.0000
vt 0.0000 0.0000
vt 1.0000 0.0000
vt 0.0000 1.0000
vt 0.0000 0.0000
vt 1.0000 0.0000
vt 0.0000 1.0000
vt 0.0000 0.0000
vt 1.0000 0.0000
vt 0.0000 1.0000
vt 0.0000 0.0000
vt 1.0000 1.0000
vt 1.0000 1.0000
vt 1.0000 1.0000
vt 1.0000 1.0000
vt 1.0000 1.0000
vn -1.0000 0.0000 0.0000
vn 0.0000 0.0000 -1.0000
vn 1.0000 0.0000 0.0000
vn 0.0000 0.0000 1.0000
vn 0.0000 -1.0000 0.0000
vn 0.0000 1.0000 0.0000
usemtl Crate
s off
f 2/1/1 3/2/1 1/3/1
f 4/4/2 7/5/2 3/6/2
f 8/7/3 5/8/3 7/9/3
f 6/10/4 1/11/4 5/12/4
f 7/13/5 1/11/5 3/6/5
f 4/4/6 6/14/6 8/15/6
f 2/1/1 4/16/1 3/2/1
f 4/4/2 8/17/2 7/5/2
f 8/7/3 6/18/3 5/8/3
f 6/10/4 2/19/4 1/11/4
f 7/13/5 5/20/5 1/11/5
f 4/4/6 2/19/6 6/14/6
g Room
v -7.999997 0.000000 -8.000003
v 8.000000 -0.000000 8.000000
v 8.000000 0.000000 -8.000000
v 7.999995 8.000000 8.000005
v -8.000000 8.000000 -8.000000
v 8.000004 8.000000 -7.999996
v -8.000001 -0.000000 7.999999
v -8.000003 8.000000 7.999998
vt -0.0013 1.0013
vt 0.9987 0.0013
vt -0.0013 0.0013
vt 0.0000 0.0000
vt 1.0000 1.0000
vt 1.0000 0.0000
vt 0.0000 0.3322
vt 1.0000 0.6652
vt 1.0000 0.3322
vt 0.9987 0.3333
vt -0.0013 0.0000
vt -0.0013 0.3333
vt 1.0013 0.6654
vt 0.0013 0.3320
vt 0.0013 0.6654
vt -0.0013 0.3333
vt 0.9987 0.6667
vt 0.9987 0.3333
vt 0.9987 1.0013
vt 0.0000 1.0000
vt 0.0000 0.6652
vt 0.9987 0.0000
vt 1.0013 0.3320
vt -0.0013 0.6667
vn -0.0000 1.0000 0.0000
vn 0.0000 -1.0000 -0.0000
vn -1.0000 -0.0000 -0.0000
vn 0.0000 0.0000 -1.0000
vn 1.0000 0.0000 0.0000
vn -0.0000 -0.0000 1.0000
usemtl Wall
s 1
f 9/21/7 10/22/7 11/23/7
f 12/24/8 13/25/8 14/26/8
f 10/27/9 14/28/9 11/29/9
f 15/30/10 12/31/10 10/32/10
f 9/33/11 16/34/11 15/35/11
f 13/36/12 11/37/12 14/38/12
f 9/21/7 15/39/7 10/22/7
f 12/24/8 16/40/8 13/25/8
f 10/27/9 12/41/9 14/28/9
f 15/30/10 16/42/10 12/31/10
f 9/33/11 13/43/11 16/34/11
f 13/36/12 9/44/12 11/37/12
